@startuml
!include ../skin.puml
!include ../variables.puml


state "V_LoginPage" as S_LoginPage

[*] --> S_LoginPage

state "Application" as application {


  state "V_OngletClient" as S_OngletClient {
      state "V_ResultatRecherche" as S_ResultatRecherche
      state "V_BilanDossierClientNE" as S_BilanDossierClientNE
      state "V_BilanDossierClientE" as S_BilanDossierClientE
      state "V_ProduitClient" as S_ProduitClient
      state "V_RelationsClient" as S_RelationsClient

      S_ResultatRecherche --> S_BilanDossierClientNE
      S_BilanDossierClientNE --> S_BilanDossierClientE
      S_BilanDossierClientNE --> S_ProduitClient
      S_BilanDossierClientNE --> S_RelationsClient
      S_BilanDossierClientE --> S_ProduitClient
      S_BilanDossierClientE --> S_RelationsClient
      S_BilanDossierClientE --> S_BilanDossierClientNE
      S_ProduitClient --> S_BilanDossierClientNE
      S_ProduitClient --> S_BilanDossierClientE
      S_ProduitClient --> S_RelationsClient
      S_RelationsClient --> S_ProduitClient
      S_RelationsClient --> S_BilanDossierClientE
      S_RelationsClient --> S_BilanDossierClientNE
  }

  state "V_OngletAgenda" as S_OngletAgenda {
      state "V_OngletAgendaAgence" as S_OngletAgendaAgence
      state "V_OngletAgendaAgent" as S_OngletAgendaAgent
      state "V_PopupConsultationTache" as S_PopupConsultationTache
      state "V_PopupActivite" as S_PopupActivite
      state "V_PopupAjoutContactCommercial" as S_PopupAjoutContactCommercial
      state "V_PopupAjoutContactSpontane" as S_PopupAjoutContactSpontane
      state "V_PopupChoixContact" as S_PopupChoixContact
      state "V_PopupChoixClient" as S_PopupChoixClient
      state "V_PopupAjoutTache" as S_PopupAjoutTache

      S_OngletAgendaAgence --> S_OngletAgendaAgent
      S_OngletAgendaAgent --> S_OngletAgendaAgence
      S_OngletAgendaAgence --> S_PopupActivite
      S_OngletAgendaAgent --> S_PopupActivite
      S_OngletAgendaAgence --> S_PopupAjoutTache

      S_OngletAgendaAgent --> S_PopupConsultationTache
      S_PopupConsultationTache --> S_OngletAgendaAgent

      S_OngletAgendaAgence --> S_PopupConsultationTache
      S_PopupConsultationTache --> S_OngletAgendaAgence

      S_PopupActivite --> S_PopupAjoutContactCommercial
      S_PopupAjoutContactCommercial --> S_PopupActivite

      S_PopupActivite --> S_PopupAjoutContactSpontane
      S_PopupAjoutContactSpontane --> S_PopupActivite

      S_PopupAjoutContactCommercial --> S_PopupChoixContact
      S_PopupChoixContact --> S_PopupAjoutContactCommercial

      S_PopupAjoutContactSpontane --> S_PopupChoixClient
      S_PopupChoixClient --> S_PopupAjoutContactSpontane

  }

  state "V_OngletPersonnes" as S_OngletPersonnes

  state "V_OngletContacts" as S_OngletContacts {


  }

  S_LoginPage -right-> S_OngletAgenda
  S_OngletClient --> S_OngletAgenda
  S_OngletClient --> S_OngletPersonnes
  S_OngletClient --> S_OngletContacts
  S_OngletAgenda -right-> S_OngletClient
  S_OngletAgenda --> S_OngletPersonnes
  S_OngletAgenda --> S_OngletContacts
  S_OngletPersonnes --> S_OngletClient
  S_OngletPersonnes --> S_OngletAgenda
  S_OngletPersonnes -right-> S_OngletContacts
  S_OngletContacts --> S_OngletClient
  S_OngletContacts --> S_OngletAgenda
  S_OngletContacts --> S_OngletPersonnes

}

application -left-> [*]

@enduml